<?xml version="1.0" encoding="UTF-8"?>
<svg version="1.1" xmlns="http://www.w3.org/2000/svg" width="290" height="167">
<path d="M0 0 C1.0219043 -0.00483398 1.0219043 -0.00483398 2.06445312 -0.00976562 C5.37587888 0.02522543 7.99367727 0.33269624 11.12109375 1.45703125 C14.64563234 2.52759151 15.63890066 1.77140076 18.9375 0.3125 C28.40336654 -0.65340475 37.03667 -0.631934 44.9375 5.3125 C51.2374269 10.72587002 53.57216536 16.94652549 54.25390625 25.09375 C54.64135432 34.38036144 53.94446722 42.63770491 47.6875 49.9375 C43.70566688 51.92841656 41.37913892 51.87651764 36.9375 51.3125 C34.375 49.5625 34.375 49.5625 32.9375 47.3125 C33.02719663 44.62160104 34.07687143 43.07440713 35.4375 40.75 C38.18087368 34.46310198 38.74358208 27.97669805 36.75 21.375 C35.39069684 17.9367626 34.02267281 15.49026904 30.9375 13.3125 C28.29565459 12.51568682 28.29565459 12.51568682 25.9375 12.3125 C26.55625 13.17875 27.175 14.045 27.8125 14.9375 C32.50104422 22.38401142 32.73324101 29.70670834 31.9375 38.3125 C30.39080599 43.76355131 27.70012828 47.17919192 22.9375 50.3125 C19.90593143 51.82828428 17.05783386 51.56221927 13.6875 51.625 C12.38296875 51.66238281 11.0784375 51.69976562 9.734375 51.73828125 C5.39108571 51.25122515 3.33498779 49.98701048 -0.0625 47.3125 C-0.64 46.85875 -1.2175 46.405 -1.8125 45.9375 C-6.43295798 39.93090463 -5.72643677 31.43615103 -5.0625 24.3125 C-4.06577014 20.77658953 -2.7408641 17.57486235 -1.0625 14.3125 C-0.7325 13.6525 -0.4025 12.9925 -0.0625 12.3125 C-5.4166717 14.05619943 -5.4166717 14.05619943 -8.9375 18.25 C-12.04032028 26.69656632 -11.78905961 34.07304251 -8.0625 42.3125 C-7.4025 42.9725 -6.7425 43.6325 -6.0625 44.3125 C-6.2855357 46.6172022 -6.92695216 48.08924474 -8.125 50.0625 C-11.27431146 52.09431385 -14.49383315 51.91427519 -18.0625 51.3125 C-22.35943211 49.0663764 -24.54490766 45.7305436 -26.33203125 41.33203125 C-28.5279805 32.25465815 -28.60109371 20.85250654 -24.45703125 12.359375 C-18.61690832 3.78731782 -10.3093974 -0.24522829 0 0 Z M12.9375 16.3125 C9.19534419 22.86127267 8.98747891 29.89860991 9.9375 37.3125 C11.32011349 39.23213339 11.32011349 39.23213339 12.9375 40.3125 C15.03577433 39.22955018 15.03577433 39.22955018 16.9375 37.3125 C18.22365104 29.90953614 17.10257536 23.03828514 13.9375 16.3125 C13.6075 16.3125 13.2775 16.3125 12.9375 16.3125 Z " fill="#000000" transform="translate(50.0625,52.6875)"/>
<path d="M0 0 C6.18643894 5.17934423 9.19432949 10.89340954 9.94140625 19.0078125 C10.28288915 27.62199406 8.80131588 34.60455702 3.125 41.25 C0.00515472 43.80987305 -1.6757989 45.1805417 -5.75 45.625 C-9.3125 45.25 -9.3125 45.25 -11.6875 43.5 C-14.38856264 39.76006711 -14.38856264 39.76006711 -14.3125 37.25 C-12.6902546 35.54006566 -11.01836575 33.87652316 -9.3125 32.25 C-6.56735827 27.67476379 -6.77414675 22.42647354 -7.3125 17.25 C-8.49428776 13.94099427 -9.35914098 12.03311634 -12.0625 9.8125 C-15.45017054 8.96558236 -17.94394023 9.40786006 -21.3125 10.25 C-24.18192113 12.51533247 -25.15157612 13.76722837 -26.3125 17.25 C-27.04478433 24.00862425 -26.40709268 29.66272973 -22.3125 35.25 C-21.3225 35.91 -20.3325 36.57 -19.3125 37.25 C-20.9375 43 -20.9375 43 -24.3125 45.25 C-28.32714919 45.70448859 -30.75175316 45.50794354 -34.4375 43.8125 C-40.15530934 38.71619168 -42.86422937 32.45683578 -43.515625 24.890625 C-43.68225351 16.39257111 -41.88822553 8.88059253 -36.3125 2.25 C-25.2677496 -6.60547916 -12.22832331 -6.46024628 0 0 Z " fill="#000000" transform="translate(177.3125,56.75)"/>
<path d="M0 0 C1.90265625 -0.01546875 1.90265625 -0.01546875 3.84375 -0.03125 C8.9452282 0.70999042 13.33118482 3.38054026 16.5 7.5 C18.17801747 11.76355922 18.74569614 15.30444504 18.72705078 19.87255859 C18.72689972 21.11339203 18.72674866 22.35422546 18.72659302 23.63265991 C18.71638225 24.97125411 18.7059503 26.30984663 18.6953125 27.6484375 C18.69157813 29.02991531 18.68873316 30.41139578 18.68673706 31.7928772 C18.67913392 35.41293771 18.65951437 39.03283543 18.6373291 42.65283203 C18.61679878 46.35316771 18.60772004 50.05352992 18.59765625 53.75390625 C18.57626499 61.00267804 18.54216964 68.25131613 18.5 75.5 C16.37527424 75.55386629 14.25016348 75.59273071 12.125 75.625 C10.94164063 75.64820312 9.75828125 75.67140625 8.5390625 75.6953125 C5.5 75.5 5.5 75.5 3.5 73.5 C3.25949097 71.51315308 3.25949097 71.51315308 3.27294922 69.05029297 C3.27310028 68.12948944 3.27325134 67.20868591 3.27340698 66.25997925 C3.28372955 65.26410797 3.29405212 64.26823669 3.3046875 63.2421875 C3.3075174 62.22399933 3.31034729 61.20581116 3.31326294 60.1567688 C3.3244823 56.896061 3.34959004 53.63562516 3.375 50.375 C3.38502753 48.16797271 3.39415377 45.96094112 3.40234375 43.75390625 C3.42442732 38.33584428 3.45792205 32.91794157 3.5 27.5 C2.26262085 27.52936646 2.26262085 27.52936646 1.00024414 27.55932617 C-0.08135986 27.57455322 -1.16296387 27.58978027 -2.27734375 27.60546875 C-3.8859729 27.63483521 -3.8859729 27.63483521 -5.52709961 27.66479492 C-9.55804693 27.44134995 -11.59179746 26.25906395 -14.5 23.5 C-17.38540214 20.03751744 -18.04347226 17.00907693 -17.84765625 12.48828125 C-17.04114662 7.87577114 -14.35794535 5.18535576 -10.8203125 2.359375 C-6.91001952 0.16961093 -4.45512944 -0.03622056 0 0 Z M-1.5 10.5 C-2.16 11.16 -2.82 11.82 -3.5 12.5 C-3.17958603 15.10280568 -3.17958603 15.10280568 -2.5 17.5 C-0.85 17.5 0.8 17.5 2.5 17.5 C3.17958603 15.10280568 3.17958603 15.10280568 3.5 12.5 C2.84 11.84 2.18 11.18 1.5 10.5 C0.51 10.5 -0.48 10.5 -1.5 10.5 Z " fill="#000000" transform="translate(108.5,28.5)"/>
<path d="M0 0 C3.66434411 2.79188123 5.41324711 5.55690607 6.625 10 C7.02002046 15.19846919 6.40589312 18.82866033 3.5 23.1875 C0.625 25 0.625 25 -3.1875 24.8125 C-4.239375 24.544375 -5.29125 24.27625 -6.375 24 C-7 21.6875 -7 21.6875 -7.375 19 C-6.715 18.01 -6.055 17.02 -5.375 16 C-5.1247843 12.91634129 -5.1247843 12.91634129 -5.375 10 C-6.44145115 8.70366379 -6.44145115 8.70366379 -8.9375 8.9375 C-9.741875 8.958125 -10.54625 8.97875 -11.375 9 C-12.3524373 13.30072413 -12.35953016 15.15497282 -10.375 19 C-10.90131579 23.52631579 -10.90131579 23.52631579 -12.375 25 C-16.43686389 24.84672212 -18.67690482 24.62461147 -21.75 21.875 C-24.37069628 17.2383835 -24.62276483 13.59670668 -23.8125 8.375 C-21.97039101 4.05004847 -20.210917 2.66165669 -16.375 0 C-10.95903473 -1.80532176 -5.44885458 -1.61447543 0 0 Z " fill="#000000" transform="translate(169.375,102)"/>
</svg>
